<?xml version="1.0" encoding="UTF-8"?> <svg xmlns="http://www.w3.org/2000/svg" width="700" height="245" viewBox="0 0 700 245" fill="none"><path d="M345.914 230.926V203.321H336.959V195.802H362.881V203.321H353.827V230.926H345.914ZM427.803 230.926V195.802H450.064V203.321H435.67V209.604H447.097V217.124H435.67V223.406H450.064V230.926H427.803ZM512.414 230.926L527.453 195.802H534.576L549.615 230.926H541.403L538.286 223.505H523.742L520.625 230.926H512.414ZM526.61 216.678H535.415L531.014 206.092L526.61 216.678ZM631.537 223.456L621.247 209.258V230.926H613.381V195.802H620.554L631.537 210.94L642.52 195.802H649.692V230.926H641.776V209.258L631.537 223.456Z" fill="white"></path><path d="M616.823 31.8028L616.773 31.7046C616.823 31.7537 616.823 31.8028 616.823 31.8028Z" fill="white"></path><path d="M674.722 88.4692C676.527 86.8886 677.971 85.4435 679.01 84.2695C678.967 84.3146 679.01 84.2695 679.056 84.1789C679.236 83.9532 679.418 83.7275 679.644 83.5015C687.314 74.831 691.603 64.7601 692.326 53.199C692.957 43.3087 690.926 33.9608 685.871 25.5156C675.94 8.8966 661.183 0.361285 641.773 0.0451605C637.305 0 632.881 0 628.413 0L616.903 31.4317C616.903 31.522 616.903 31.6575 616.903 31.7478C617.354 31.7929 617.849 31.8833 618.3 31.8833C626.608 31.9284 634.912 31.7929 643.217 31.9736C652.968 32.1994 660.821 40.7799 660.506 50.5344C660.187 60.7407 652.155 68.4633 641.773 68.5084C633.963 68.5535 626.156 68.5084 618.347 68.5084C617.895 68.5084 617.444 68.5535 616.992 68.5535C616.992 57.0376 616.992 45.5667 616.992 34.0511C616.992 33.2834 616.903 32.5155 616.813 31.7478C605.346 31.7478 593.838 31.7478 582.328 31.7478C582.328 70.631 582.328 109.198 582.328 147.855C593.881 147.855 605.439 147.855 616.946 147.855C616.946 147.133 616.992 146.591 616.992 146.049C616.992 130.784 616.992 115.52 616.992 100.256C617.444 100.256 617.849 100.301 618.3 100.301C625.884 100.301 633.422 100.301 641.006 100.301C642.135 100.301 643.399 100.256 644.75 100.166C651.478 116.062 658.249 131.236 664.522 146.816C664.837 147.629 665.153 147.946 666.102 147.946C673.64 147.9 681.131 147.9 688.669 147.9C692.326 147.9 695.984 147.9 699.685 147.9C691.921 128.301 682.668 107.211 674.722 88.4692Z" fill="white"></path><path d="M494.408 49.6289C494.59 50.1258 494.723 50.4418 494.859 50.7126C500.233 65.9317 505.557 81.1508 510.93 96.3699H477.799C483.259 80.88 488.722 65.3446 494.229 49.7643L494.408 49.5838L512.464 0.0427246H476.986C476.534 1.39754 476.037 2.70719 475.585 4.062C458.615 52.2029 441.78 100.073 424.899 147.943C436.542 147.943 448.053 147.943 459.653 147.943C461.957 141.44 464.211 134.937 466.514 128.434H522.212C524.379 134.576 526.547 140.718 528.714 146.859C529.029 147.717 529.345 147.988 530.294 147.988C537.832 147.943 545.323 147.943 552.861 147.943C556.518 147.943 560.173 147.943 563.873 147.943C552.32 115.157 540.809 82.4154 529.255 49.5838H494.408V49.6289Z" fill="white"></path><path d="M391.399 16.4388C379.168 6.86478 365.218 1.67134 349.691 0.993934C342.379 0.677812 335.024 0.858451 327.711 0.813291C327.711 0.813291 327.665 0.813291 327.575 0.813291H292.413V27.9547C292.413 29.5353 292.413 31.1159 292.413 32.6966C292.413 38.3869 292.413 44.0317 292.413 49.6769C292.413 72.1217 292.413 94.4759 292.413 116.921C292.955 116.921 293.407 116.921 293.858 116.921C304.51 116.921 315.117 116.921 325.77 116.921C326.221 116.921 326.717 117.011 327.169 117.011C327.169 117.056 327.169 117.056 327.169 117.102L315.253 148.759H333.76C337.958 148.759 342.154 148.759 346.352 148.759C352.536 148.714 358.676 148.036 364.634 146.411C381.289 141.895 395.01 132.907 405.256 118.998C418.301 101.386 422.768 81.6054 418.526 60.1088C414.962 42.2706 405.708 27.6838 391.399 16.4388ZM378.76 101.295C371.989 109.74 363.097 114.753 352.446 116.469C350.143 116.83 347.796 116.921 345.496 116.921C339.807 116.966 334.121 116.921 328.478 116.966C328.162 116.966 327.801 117.011 327.485 117.056L327.349 116.966L327.304 117.056C327.259 116.605 327.169 116.198 327.169 115.747C327.169 88.5147 327.169 61.3283 327.169 34.0966C327.169 33.69 327.169 33.2838 327.169 32.7417C327.711 32.7417 328.162 32.7417 328.613 32.7417C334.347 32.7417 340.033 32.7869 345.765 32.7417C355.423 32.6966 364.136 35.5418 371.763 41.4578C380.974 48.5932 386.434 57.9862 387.924 69.5022C389.321 81.3342 386.208 91.9922 378.76 101.295Z" fill="white"></path><path d="M14.8193 178.398C58.89 123.855 126.604 106.09 154.952 104.026C108.595 121.252 92.0492 140.51 78.3011 158.075C154.277 94.3968 216.939 109.01 227.262 110.607C217.373 102.865 205.313 101.413 186.549 99.8163C230.638 92.0741 243.566 116.123 245.592 118.349C252.876 98.8 243.132 89.7517 242.071 86.8C258.588 104.181 250.657 123.462 244.628 130.93C200.296 96.3322 164.455 157.301 154.952 205.253C180.19 205.408 187.899 195.221 203.046 190.108L162.525 230.753H93.3998C99.719 171.333 120.944 152.51 131.122 138.236C92.9175 156.159 72.0785 207.382 66.4347 230.753C50.3871 214.463 17.5979 181.185 14.8193 178.398Z" fill="white"></path><path d="M0 124.819V148.19C34.7182 107.29 69.5303 103.395 78.3276 99.4999C42.0853 103.006 11.0082 117.84 0 124.819Z" fill="white"></path><path d="M112.501 58.9345C51.3157 57.1555 12.0064 79.593 0 91.034V67.5396L66.5451 0.00463867H162.23L228.632 67.5396V79.6736C227.693 79.1419 224.495 77.498 219.221 75.1776C208.95 42.3045 116.609 36.8419 63.392 53.8586C78.2012 51.973 99.2682 55.1156 112.501 58.9345Z" fill="#FF0606"></path><path d="M201.024 82.7962C210.877 86.1587 215.064 82.2047 215.926 79.8073C215.926 88.2511 202.779 89.1944 194.772 90.8291C183.49 93.5378 179.4 84.8045 179.212 80.9282C175.827 75.4639 163.088 75.1838 152.417 75.8376C172.725 65.5627 188.708 78.5928 201.024 82.7962Z" fill="#FF0606"></path></svg> 