<?xml version="1.0" encoding="UTF-8"?> <svg xmlns="http://www.w3.org/2000/svg" width="180" height="116" viewBox="0 0 180 116" fill="none"><path fill-rule="evenodd" clip-rule="evenodd" d="M80.7247 96.803L97.4029 64.1528H104.381L102.998 96.7573H96.0042L96.3082 92.3735H89.7556L87.6271 96.7573L80.7247 96.803ZM92.6594 85.7369H96.7339L97.935 74.2142L92.6594 85.7369Z" fill="black"></path><path fill-rule="evenodd" clip-rule="evenodd" d="M20.2456 96.803L36.9693 64.1528H43.9477L42.5642 96.7573H35.5706L35.8747 92.3735H29.3676L27.148 96.803H20.2456ZM32.1803 85.7369H36.2548L37.4711 74.2142L32.1803 85.7369Z" fill="black"></path><path fill-rule="evenodd" clip-rule="evenodd" d="M52.2943 64.1985H58.4669L61.0514 81.6575L65.9013 64.1985H72.9861L63.8945 96.8029H56.9921L54.6204 80.5768L50.105 96.8029H43.2026L52.2943 64.1985Z" fill="black"></path><path fill-rule="evenodd" clip-rule="evenodd" d="M74.5825 64.1985H94.2557L92.3097 71.2004H86.0763L78.9459 96.8029H72.0587L79.1891 71.2004H72.6364L74.5825 64.1985Z" fill="black"></path><path d="M162.017 77.563C147.582 57.1561 127.259 41.6575 103.773 33.1467C117.551 33.6177 131.233 35.6293 144.564 39.1439L135.442 31.3353C103.67 19.2611 69.061 16.7688 35.8899 24.166L20.3217 34.958C22.2525 34.8819 25.278 34.821 27.2392 34.821C50.8456 34.8014 74.1169 40.4135 95.1254 51.1923C116.134 61.9711 134.275 77.6064 148.045 96.803L162.017 77.563Z" fill="white"></path></svg> 