<?xml version="1.0" encoding="UTF-8"?> <svg xmlns="http://www.w3.org/2000/svg" width="1190" height="422" viewBox="0 0 1190 422" fill="none"><path fill-rule="evenodd" clip-rule="evenodd" d="M341 0H0V134H341V0ZM29.9431 119.32V131.308C34.6231 131.452 38.6551 131.344 42.0391 130.984C45.4231 130.696 48.2671 130.048 50.5711 129.04C52.8751 128.104 54.7831 126.736 56.2951 124.936C57.8071 123.136 59.0671 120.868 60.0751 118.132C61.0831 115.468 61.9831 112.192 62.7751 108.304L80.3791 27.52H63.6391L57.2671 63.7L54.3511 88.108L50.5711 63.808L43.1191 27.52H26.4871L45.7111 105.928C46.2871 108.592 46.3951 110.824 46.0351 112.624C45.6751 114.424 44.8111 115.828 43.4431 116.836C42.1471 117.916 40.3831 118.636 38.1511 118.996C35.9191 119.356 33.1831 119.464 29.9431 119.32ZM99.3035 112.516C103.12 114.964 108.268 116.188 114.748 116.188C121.156 116.188 126.124 115.072 129.652 112.84C133.18 110.536 135.664 107.44 137.104 103.552C138.544 99.592 139.264 95.056 139.264 89.944V82.708H121.984V91.24C121.984 93.328 121.84 95.308 121.552 97.18C121.336 99.052 120.724 100.564 119.716 101.716C118.78 102.796 117.16 103.336 114.856 103.336C112.768 103.336 111.148 102.868 109.996 101.932C108.916 100.924 108.16 99.52 107.728 97.72C107.368 95.848 107.188 93.688 107.188 91.24V51.496C107.188 49.264 107.332 47.248 107.62 45.448C107.908 43.576 108.592 42.064 109.672 40.912C110.752 39.76 112.48 39.184 114.856 39.184C117.232 39.184 118.888 39.76 119.824 40.912C120.832 41.992 121.444 43.432 121.66 45.232C121.876 46.96 121.984 48.832 121.984 50.848V59.056H139.264V51.712C139.264 46.672 138.508 42.244 136.996 38.428C135.556 34.612 133.036 31.66 129.436 29.572C125.908 27.484 121.012 26.44 114.748 26.44C108.268 26.44 103.12 27.628 99.3035 30.004C95.5595 32.38 92.9315 35.764 91.4195 40.156C89.9075 44.476 89.1515 49.66 89.1515 55.708V87.136C89.1515 92.896 89.9075 97.972 91.4195 102.364C92.9315 106.684 95.5595 110.068 99.3035 112.516ZM152.303 27.52V115H169.799V40.264H186.215V115H203.711V27.52H152.303ZM219.01 27.52V115H257.35V102.904H236.83V75.472H252.49V63.052H236.83V39.832H257.134V27.52H219.01ZM280.081 68.236L262.801 115H277.813L287.857 87.46L299.305 115H315.937L298.441 72.34L314.425 27.52H299.413L290.665 52.684L280.297 27.52H263.449L280.081 68.236Z" fill="white"></path><path fill-rule="evenodd" clip-rule="evenodd" d="M562 144H0V278H562V144ZM30.752 171.52V259H49.76V185.344H64.124V259H83.132V171.52H30.752ZM98.3027 171.52V259H117.635V221.848H125.411C130.163 221.848 134.447 221.164 138.263 219.796C142.079 218.428 145.103 215.98 147.335 212.452C149.567 208.852 150.683 203.668 150.683 196.9C150.683 191.5 149.855 186.928 148.199 183.184C146.543 179.368 144.023 176.488 140.639 174.544C137.255 172.528 132.935 171.52 127.679 171.52H98.3027ZM124.115 208.348H117.635V185.128H124.007C126.599 185.128 128.507 185.632 129.731 186.64C130.955 187.648 131.711 189.016 131.999 190.744C132.359 192.4 132.539 194.344 132.539 196.576C132.539 199.24 132.323 201.436 131.891 203.164C131.531 204.892 130.739 206.188 129.515 207.052C128.291 207.916 126.491 208.348 124.115 208.348ZM162.486 171.52V259H174.258L197.046 208.024V259H212.598V171.52H200.07L177.714 221.632V171.52H162.486ZM239.257 211.912L222.301 259H238.285L247.681 232.864L258.373 259H276.517L259.453 216.988L274.789 171.52H258.697L250.921 195.172L241.309 171.52H223.057L239.257 211.912ZM295.271 256.84C299.087 259.144 304.271 260.296 310.823 260.296C317.447 260.296 322.667 259.144 326.483 256.84C330.371 254.536 333.143 251.224 334.799 246.904C336.455 242.584 337.283 237.436 337.283 231.46V198.952C337.283 192.904 336.455 187.756 334.799 183.508C333.143 179.26 330.371 176.02 326.483 173.788C322.667 171.484 317.447 170.332 310.823 170.332C304.271 170.332 299.087 171.484 295.271 173.788C291.455 176.02 288.719 179.26 287.063 183.508C285.407 187.756 284.579 192.904 284.579 198.952V231.46C284.579 237.436 285.407 242.584 287.063 246.904C288.719 251.224 291.455 254.536 295.271 256.84ZM315.251 245.068C314.315 246.076 312.839 246.58 310.823 246.58C308.807 246.58 307.331 246.076 306.395 245.068C305.531 244.06 304.955 242.764 304.667 241.18C304.451 239.596 304.343 237.976 304.343 236.32V194.2C304.343 192.472 304.487 190.852 304.775 189.34C305.063 187.756 305.675 186.46 306.611 185.452C307.547 184.444 308.951 183.94 310.823 183.94C312.839 183.94 314.315 184.444 315.251 185.452C316.187 186.46 316.799 187.756 317.087 189.34C317.375 190.852 317.519 192.472 317.519 194.2V236.32C317.519 237.976 317.375 239.596 317.087 241.18C316.799 242.764 316.187 244.06 315.251 245.068ZM346.672 245.176V277.9H359.956L361.036 259H403.912L404.884 277.9H417.628V245.176H407.8V171.52H367.084L364.708 202.084C364.276 207.988 363.736 213.208 363.088 217.744C362.44 222.208 361.648 226.06 360.712 229.3C359.776 232.54 358.732 235.24 357.58 237.4C356.428 239.56 355.132 241.288 353.692 242.584C352.324 243.808 350.812 244.672 349.156 245.176H346.672ZM389.764 245.176H367.408C368.488 244.168 369.568 243.088 370.648 241.936C371.8 240.784 372.88 239.308 373.888 237.508C374.896 235.708 375.832 233.404 376.696 230.596C377.632 227.716 378.424 224.116 379.072 219.796C379.792 215.476 380.332 210.22 380.692 204.028L381.664 185.236H389.764V245.176ZM428.575 171.52V259H440.347L463.135 208.024V259H478.687V171.52H466.159L443.803 221.632V171.52H428.575ZM501.998 185.884V259H521.438V185.884H534.506V171.52H488.822V185.884H501.998Z" fill="white"></path><path fill-rule="evenodd" clip-rule="evenodd" d="M1190 288H0V422H1190V288ZM31.0788 314.52V402H50.4108V363.876H52.3548L65.0988 402H84.9708L68.4468 355.56L84.4308 314.52H65.2068L52.3548 349.188H50.4108V314.52H31.0788ZM173.436 402L175.92 420.9H190.068V388.932H178.188V314.52H158.856V388.932H144.168V314.52H124.836V402H173.436ZM200.711 314.52V402H240.239V388.932H220.043V362.796H235.271V349.404H220.043V327.696H240.023V314.52H200.711ZM245.452 388.392V402C251.428 402.288 256.324 402.072 260.14 401.352C263.956 400.632 266.944 399.3 269.104 397.356C271.336 395.34 272.992 392.568 274.072 389.04C275.224 385.512 276.052 381.156 276.556 375.972C277.06 370.716 277.564 364.488 278.068 357.288L279.796 329.316H289.408V402H308.632V314.52H262.3L259.492 353.616C258.988 360.168 258.556 365.568 258.196 369.816C257.908 374.064 257.512 377.448 257.008 379.968C256.504 382.488 255.82 384.36 254.956 385.584C254.092 386.808 252.904 387.6 251.392 387.96C249.88 388.248 247.9 388.392 245.452 388.392ZM324.211 314.52V402H363.739V388.932H343.543V362.796H358.771V349.404H343.543V327.696H363.523V314.52H324.211ZM373.92 406.428V419.172C378.6 419.244 382.668 419.1 386.124 418.74C389.652 418.452 392.64 417.84 395.088 416.904C397.536 415.968 399.588 414.6 401.244 412.8C402.972 411.072 404.412 408.84 405.564 406.104C406.716 403.368 407.724 400.02 408.588 396.06L426.732 314.52H408.588L402.216 350.376L399.624 373.92L396.06 350.484L388.5 314.52H370.572L390.228 393.144C390.876 395.808 390.948 398.04 390.444 399.84C390.012 401.568 389.076 402.936 387.636 403.944C386.196 404.952 384.324 405.636 382.02 405.996C379.716 406.356 377.016 406.5 373.92 406.428ZM445.924 399.732C449.812 402.108 455.068 403.296 461.693 403.296C468.245 403.296 473.32 402.18 476.921 399.948C480.592 397.644 483.148 394.548 484.589 390.66C486.1 386.7 486.857 382.236 486.857 377.268V369.708H467.956V378.888C467.956 380.616 467.849 382.308 467.633 383.964C467.417 385.62 466.876 386.988 466.012 388.068C465.148 389.076 463.708 389.58 461.693 389.58C459.82 389.58 458.38 389.112 457.372 388.176C456.436 387.168 455.788 385.872 455.428 384.288C455.141 382.632 454.996 380.832 454.996 378.888V337.74C454.996 335.94 455.104 334.248 455.32 332.664C455.608 331.008 456.22 329.64 457.156 328.56C458.164 327.48 459.676 326.94 461.693 326.94C463.78 326.94 465.257 327.48 466.12 328.56C466.984 329.568 467.488 330.864 467.633 332.448C467.849 334.032 467.956 335.688 467.956 337.416V346.164H486.857V338.604C486.857 333.636 486.1 329.244 484.589 325.428C483.077 321.612 480.484 318.66 476.812 316.572C473.212 314.412 468.172 313.332 461.693 313.332C455.068 313.332 449.812 314.52 445.924 316.896C442.108 319.272 439.409 322.656 437.824 327.048C436.241 331.368 435.448 336.552 435.448 342.6V374.136C435.448 380.04 436.241 385.188 437.824 389.58C439.409 393.9 442.108 397.284 445.924 399.732ZM507.536 328.884V402H526.976V328.884H540.044V314.52H494.36V328.884H507.536ZM549.906 314.52V402H569.238V364.848H577.014C581.766 364.848 586.05 364.164 589.866 362.796C593.682 361.428 596.706 358.98 598.938 355.452C601.17 351.852 602.286 346.668 602.286 339.9C602.286 334.5 601.458 329.928 599.802 326.184C598.146 322.368 595.626 319.488 592.242 317.544C588.858 315.528 584.538 314.52 579.282 314.52H549.906ZM575.718 351.348H569.238V328.128H575.61C578.202 328.128 580.11 328.632 581.334 329.64C582.558 330.648 583.314 332.016 583.602 333.744C583.962 335.4 584.142 337.344 584.142 339.576C584.142 342.24 583.926 344.436 583.494 346.164C583.134 347.892 582.342 349.188 581.118 350.052C579.894 350.916 578.094 351.348 575.718 351.348ZM613.765 314.52V402H653.293V388.932H633.097V362.796H648.325V349.404H633.097V327.696H653.077V314.52H613.765ZM665.418 314.52L663.906 402H677.838L679.134 343.356L689.934 402H702.138L712.29 343.788L713.91 402H727.626L726.114 314.52H706.134L695.766 365.388L686.154 314.52H665.418ZM736.709 388.392V402C742.685 402.288 747.581 402.072 751.397 401.352C755.213 400.632 758.201 399.3 760.361 397.356C762.593 395.34 764.249 392.568 765.329 389.04C766.481 385.512 767.309 381.156 767.813 375.972C768.317 370.716 768.821 364.488 769.325 357.288L771.053 329.316H780.665V402H799.889V314.52H753.557L750.749 353.616C750.245 360.168 749.813 365.568 749.453 369.816C749.165 374.064 748.769 377.448 748.265 379.968C747.761 382.488 747.077 384.36 746.213 385.584C745.349 386.808 744.161 387.6 742.649 387.96C741.137 388.248 739.157 388.392 736.709 388.392ZM815.468 314.52V402H854.996V388.932H834.8V362.796H850.028V349.404H834.8V327.696H854.78V314.52H815.468ZM840.092 289.464V305.448H854.132V289.464H840.092ZM816.548 289.464V305.448H830.588V289.464H816.548ZM866.256 314.52V402H885.588V363.768H899.088V402H918.528V314.52H899.088V349.944H885.588V314.52H866.256ZM934.334 314.52V402H953.666V363.768H967.166V402H986.606V314.52H967.166V349.944H953.666V314.52H934.334ZM1002.41 314.52V402H1024.34C1028.22 402 1031.82 401.676 1035.14 401.028C1038.45 400.38 1041.36 399.156 1043.88 397.356C1046.4 395.556 1048.35 393 1049.72 389.688C1051.16 386.376 1051.88 382.056 1051.88 376.728C1051.88 370.896 1050.87 366.144 1048.85 362.472C1046.91 358.728 1043.99 355.956 1040.1 354.156C1036.29 352.356 1031.61 351.456 1026.06 351.456H1021.74V314.52H1002.41ZM1024.44 389.364H1021.74V364.848H1024.23C1028.12 364.848 1030.71 365.964 1032 368.196C1033.3 370.356 1033.98 373.056 1034.06 376.296C1034.13 379.248 1033.84 381.696 1033.19 383.64C1032.62 385.584 1031.61 387.024 1030.17 387.96C1028.8 388.896 1026.89 389.364 1024.44 389.364ZM1059.22 314.52V402H1078.55V314.52H1059.22ZM1095.19 314.52L1093.68 402H1107.61L1108.91 343.356L1119.71 402H1131.91L1142.06 343.788L1143.68 402H1157.4L1155.89 314.52H1135.91L1125.54 365.388L1115.93 314.52H1095.19Z" fill="white"></path></svg> 